<?xml version="1.0" encoding="UTF-8" standalone="no"?>
<!-- Generator: Adobe Illustrator 26.0.1, SVG Export Plug-In . SVG Version: 6.00 Build 0)  -->

<svg
   version="1.1"
   id="Layer_1"
   x="0px"
   y="0px"
   viewBox="0 0 254.8 127.9"
   style="enable-background:new 0 0 254.8 127.9;"
   xml:space="preserve"
   sodipodi:docname="Footer AVG logo.svg"
   inkscape:version="1.2.2 (b0a8486541, 2022-12-01)"
   xmlns:inkscape="http://www.inkscape.org/namespaces/inkscape"
   xmlns:sodipodi="http://sodipodi.sourceforge.net/DTD/sodipodi-0.dtd"
   xmlns="http://www.w3.org/2000/svg"
   xmlns:svg="http://www.w3.org/2000/svg"><defs
   id="defs27">
	
	
	
	
	
	
</defs><sodipodi:namedview
   id="namedview25"
   pagecolor="#ffffff"
   bordercolor="#666666"
   borderopacity="1.0"
   inkscape:showpageshadow="2"
   inkscape:pageopacity="0.0"
   inkscape:pagecheckerboard="0"
   inkscape:deskcolor="#d1d1d1"
   showgrid="false"
   inkscape:zoom="2.96"
   inkscape:cx="121.4527"
   inkscape:cy="67.060811"
   inkscape:window-width="1854"
   inkscape:window-height="1011"
   inkscape:window-x="66"
   inkscape:window-y="32"
   inkscape:window-maximized="1"
   inkscape:current-layer="Layer_1" />
<style
   type="text/css"
   id="style2">
	.st0{fill:#FFFFFF;}
	.st1{fill-rule:evenodd;clip-rule:evenodd;fill:#FFFFFF;}
	.st2{fill:none;stroke:#FFFFFF;stroke-width:1.5;stroke-miterlimit:10;}
	.st3{enable-background:new    ;}
</style>
<path
   class="st0"
   d="m 176.2,32.8 c -7.7,2.5 -13.8,5.4 -18.3,8.6 -4.5,3.2 -7.8,6.7 -10,10.3 -2.2,3.6 -3.7,7.4 -4.6,11.3 -0.9,3.9 -1.5,7.7 -2,11.6 -0.5,3.8 -1.2,7.5 -2,11.1 -0.8,3.6 -2.4,6.9 -4.7,10 L 113.3,37.8 H 85.6 l 31.7,85.1 h 23.5 c 6.5,-4.5 11.4,-9.3 14.9,-14.5 3.5,-5.2 5.9,-10.4 7.5,-15.8 1.6,-5.4 2.6,-10.8 3,-16.3 0.4,-5.5 0.8,-10.8 1.2,-16 0.4,-5.2 1.2,-10.1 2.4,-14.8 1.1,-4.6 3.3,-8.9 6.4,-12.7"
   id="path4" /><path
   class="st1"
   d="M 54.7,59.5 C 54.1,49.2 58.5,40.1 60.3,30.4 57.5,40.8 50.5,42.5 51.9,61.7 46.5,52.5 44,44.2 43.7,36.5 43.2,24.5 53.9,16.6 53.6,3.8 72.5,21.2 70.4,39.9 54.7,59.5"
   id="path6"
   style="fill:#a0892c" /><path
   class="st1"
   d="m 48.7,68.8 c -18,-4.8 -26.1,2 -24.6,19.9 5.2,-10.5 28.6,-8.4 24,-20.1 -6.5,2 -12,3.5 -13.5,5.9 4.7,-1.9 9.4,-3.8 14.1,-5.7"
   id="path8"
   style="fill:#a0892c" /><path
   class="st1"
   d="M 3.7,46.8 C 24.3,37.1 41.6,35.2 46.7,62.1 40.7,58.3 34.8,51.4 28.6,50.7 34.8,55.6 41.1,60.5 47.4,65.3 27.6,68.4 25.3,50 3.7,46.8"
   id="path10"
   style="fill:#a0892c" /><path
   class="st0"
   d="m 72.6,75.6 c 0.8,1.4 2.1,4.6 3.9,9.3 2,5.1 3,8.1 3,9 0,0.6 -1.1,0.9 -3.3,1 -1.2,0.1 -3,0.1 -5.6,0.1 -2.4,0 -3.8,-0.3 -4,-0.8 -0.1,-0.2 -0.1,-0.4 -0.1,-0.7 0,-1.1 0.8,-4.1 2.5,-8.9 1.6,-4.7 2.8,-7.7 3.6,-9 m -38.9,44.7 c 0,0.6 0.5,1 1.4,1.2 1.1,0.3 4.5,0.4 10.2,0.4 5.2,0 8.6,-0.1 10.1,-0.4 1.3,-0.2 2,-1 2.4,-2.2 1.3,-4.7 2.2,-7.2 2.9,-7.6 0.6,-0.2 5.5,-0.3 14.7,-0.3 6.2,0 9.5,0.2 9.9,0.4 0.6,0.5 1.3,2.3 2.1,5.2 0.7,2.7 1.5,4.2 2.5,4.4 1.3,0.3 5.4,0.4 12.5,0.4 5.6,0 8.4,-0.5 8.4,-1.4 0,-0.8 -4.1,-11.3 -12.4,-31.3 -9,-21.7 -13.9,-33.6 -14.6,-35.7 -0.4,-1.2 -1,-1.9 -1.5,-1.9 -1,0 -2.5,0.1 -4.6,0.2 C 75.6,52 74.1,52 73,52 c -1,0 -2.5,-0.1 -4.4,-0.2 -1.9,-0.1 -3.4,-0.2 -4.3,-0.2 -0.7,0 -1.3,0.5 -1.9,1.6 -1.8,3.4 -7,15.2 -15.7,35.3 -8.7,20.3 -13,30.9 -13,31.8 z"
   id="path12" /><path
   class="st0"
   d="m 243.8,117.4 c 0.1,0.9 -0.4,1.3 -1.5,1.3 -0.7,0 -2.7,-0.3 -6,-1.1 -3.3,-0.8 -5.3,-1.2 -6.1,-1.5 -7.7,2.7 -15,4 -22,4 -11.3,0 -20.6,-3.4 -27.9,-10.1 -7.2,-6.6 -10.8,-15 -10.8,-25.2 0,-10.4 3.5,-19 10.4,-25.8 7.2,-7.1 16.5,-10.6 27.9,-10.6 5.6,0 10.8,1 15.7,2.8 5.3,2.1 9.5,5 12.5,8.8 0.6,0.8 0.9,1.3 0.9,1.7 0,1 -1.6,3.4 -4.9,7 -3.3,3.7 -5.4,5.5 -6.3,5.5 -0.2,0 -1.1,-0.7 -2.5,-2 -1.8,-1.6 -3.6,-2.8 -5.5,-3.7 -2.8,-1.3 -5.9,-2 -9.2,-2 -5.5,0 -9.8,1.8 -13.1,5.5 -3,3.4 -4.5,7.6 -4.5,12.6 0,5.3 1.6,9.5 4.7,12.7 3.2,3.2 7.8,4.8 13.7,4.8 3.7,0 7.9,-0.8 12.5,-2.5 -0.1,-1.1 -0.4,-3.8 -1,-8.2 -0.5,-3.4 -0.7,-6.1 -0.7,-8.2 0,-0.6 0.2,-1 0.7,-1.1 0.2,-0.1 0.5,-0.1 0.9,-0.1 1.1,0 2.7,0.1 4.8,0.3 2.1,0.2 3.8,0.3 4.9,0.3 1.2,0 2.9,-0.1 5.3,-0.2 2.3,-0.2 4.1,-0.2 5.3,-0.2 0.9,0 1.4,0.5 1.4,1.6 0,1.6 -0.1,3.9 -0.3,7.1 -0.2,3.2 -0.3,5.5 -0.3,7.1 0,4.2 0.4,10.5 1.1,18.9 z"
   id="path14" />
<circle
   class="st2"
   cx="239"
   cy="47.7"
   r="6.9"
   id="circle18" />
<g
   class="st3"
   id="g22">
	<path
   class="st0"
   d="M236,51.7V44h3.3c0.8,0,1.4,0.1,1.8,0.2c0.4,0.1,0.7,0.4,0.9,0.7c0.2,0.4,0.3,0.8,0.3,1.2   c0,0.6-0.2,1.1-0.5,1.4c-0.3,0.4-0.9,0.6-1.5,0.7c0.3,0.2,0.6,0.4,0.8,0.6c0.2,0.2,0.5,0.7,0.9,1.3l0.9,1.5H241l-1-1.6   c-0.4-0.6-0.7-1-0.8-1.1c-0.1-0.2-0.3-0.3-0.5-0.3c-0.2-0.1-0.4-0.1-0.8-0.1h-0.3v3.2C237.6,51.7,236,51.7,236,51.7z M237.6,47.2   h1.2c0.8,0,1.2,0,1.4-0.1s0.3-0.2,0.4-0.3c0.1-0.2,0.2-0.3,0.2-0.6s-0.1-0.5-0.2-0.6s-0.3-0.3-0.6-0.3c-0.1,0-0.5,0-1.1,0h-1.2   L237.6,47.2L237.6,47.2z"
   id="path20" />
</g>
</svg>
