<?xml version="1.0" encoding="utf-8"?>
<!-- Generator: Adobe Illustrator 26.0.1, SVG Export Plug-In . SVG Version: 6.00 Build 0)  -->
<svg version="1.1" id="Layer_1" xmlns="http://www.w3.org/2000/svg" xmlns:xlink="http://www.w3.org/1999/xlink" x="0px" y="0px"
	 viewBox="0 0 254.8 127.9" style="enable-background:new 0 0 254.8 127.9;" xml:space="preserve">
<style type="text/css">
	.st0{fill:#FFFFFF;}
	.st1{fill-rule:evenodd;clip-rule:evenodd;fill:#FFFFFF;}
	.st2{fill:none;stroke:#FFFFFF;stroke-width:1.5;stroke-miterlimit:10;}
	.st3{enable-background:new    ;}
</style>
<g>
	<path class="st0" d="M176.2,32.8c-7.7,2.5-13.8,5.4-18.3,8.6s-7.8,6.7-10,10.3s-3.7,7.4-4.6,11.3s-1.5,7.7-2,11.6
		c-0.5,3.8-1.2,7.5-2,11.1s-2.4,6.9-4.7,10l-21.3-57.9H85.6l31.7,85.1h23.5c6.5-4.5,11.4-9.3,14.9-14.5s5.9-10.4,7.5-15.8
		s2.6-10.8,3-16.3s0.8-10.8,1.2-16s1.2-10.1,2.4-14.8C170.9,40.9,173.1,36.6,176.2,32.8"/>
	<path class="st1" d="M54.7,59.5c-0.6-10.3,3.8-19.4,5.6-29.1c-2.8,10.4-9.8,12.1-8.4,31.3c-5.4-9.2-7.9-17.5-8.2-25.2
		c-0.5-12,10.2-19.9,9.9-32.7C72.5,21.2,70.4,39.9,54.7,59.5"/>
	<path class="st1" d="M48.7,68.8c-18-4.8-26.1,2-24.6,19.9c5.2-10.5,28.6-8.4,24-20.1c-6.5,2-12,3.5-13.5,5.9
		C39.3,72.6,44,70.7,48.7,68.8"/>
	<path class="st1" d="M3.7,46.8c20.6-9.7,37.9-11.6,43,15.3c-6-3.8-11.9-10.7-18.1-11.4c6.2,4.9,12.5,9.8,18.8,14.6
		C27.6,68.4,25.3,50,3.7,46.8"/>
	<path class="st0" d="M72.6,75.6c0.8,1.4,2.1,4.6,3.9,9.3c2,5.1,3,8.1,3,9c0,0.6-1.1,0.9-3.3,1C75,95,73.2,95,70.6,95
		c-2.4,0-3.8-0.3-4-0.8c-0.1-0.2-0.1-0.4-0.1-0.7c0-1.1,0.8-4.1,2.5-8.9C70.6,79.9,71.8,76.9,72.6,75.6 M33.7,120.3
		c0,0.6,0.5,1,1.4,1.2c1.1,0.3,4.5,0.4,10.2,0.4c5.2,0,8.6-0.1,10.1-0.4c1.3-0.2,2-1,2.4-2.2c1.3-4.7,2.2-7.2,2.9-7.6
		c0.6-0.2,5.5-0.3,14.7-0.3c6.2,0,9.5,0.2,9.9,0.4c0.6,0.5,1.3,2.3,2.1,5.2c0.7,2.7,1.5,4.2,2.5,4.4c1.3,0.3,5.4,0.4,12.5,0.4
		c5.6,0,8.4-0.5,8.4-1.4c0-0.8-4.1-11.3-12.4-31.3c-9-21.7-13.9-33.6-14.6-35.7c-0.4-1.2-1-1.9-1.5-1.9c-1,0-2.5,0.1-4.6,0.2
		C75.6,52,74.1,52,73,52c-1,0-2.5-0.1-4.4-0.2c-1.9-0.1-3.4-0.2-4.3-0.2c-0.7,0-1.3,0.5-1.9,1.6c-1.8,3.4-7,15.2-15.7,35.3
		C38,108.8,33.7,119.4,33.7,120.3z"/>
	<path class="st0" d="M243.8,117.4c0.1,0.9-0.4,1.3-1.5,1.3c-0.7,0-2.7-0.3-6-1.1s-5.3-1.2-6.1-1.5c-7.7,2.7-15,4-22,4
		c-11.3,0-20.6-3.4-27.9-10.1c-7.2-6.6-10.8-15-10.8-25.2c0-10.4,3.5-19,10.4-25.8c7.2-7.1,16.5-10.6,27.9-10.6
		c5.6,0,10.8,1,15.7,2.8c5.3,2.1,9.5,5,12.5,8.8c0.6,0.8,0.9,1.3,0.9,1.7c0,1-1.6,3.4-4.9,7c-3.3,3.7-5.4,5.5-6.3,5.5
		c-0.2,0-1.1-0.7-2.5-2c-1.8-1.6-3.6-2.8-5.5-3.7c-2.8-1.3-5.9-2-9.2-2c-5.5,0-9.8,1.8-13.1,5.5c-3,3.4-4.5,7.6-4.5,12.6
		c0,5.3,1.6,9.5,4.7,12.7c3.2,3.2,7.8,4.8,13.7,4.8c3.7,0,7.9-0.8,12.5-2.5c-0.1-1.1-0.4-3.8-1-8.2c-0.5-3.4-0.7-6.1-0.7-8.2
		c0-0.6,0.2-1,0.7-1.1c0.2-0.1,0.5-0.1,0.9-0.1c1.1,0,2.7,0.1,4.8,0.3c2.1,0.2,3.8,0.3,4.9,0.3c1.2,0,2.9-0.1,5.3-0.2
		c2.3-0.2,4.1-0.2,5.3-0.2c0.9,0,1.4,0.5,1.4,1.6c0,1.6-0.1,3.9-0.3,7.1s-0.3,5.5-0.3,7.1c0,4.2,0.4,10.5,1.1,18.9L243.8,117.4z"/>
</g>
<circle class="st2" cx="239" cy="47.7" r="6.9"/>
<g class="st3">
	<path class="st0" d="M236,51.7V44h3.3c0.8,0,1.4,0.1,1.8,0.2c0.4,0.1,0.7,0.4,0.9,0.7c0.2,0.4,0.3,0.8,0.3,1.2
		c0,0.6-0.2,1.1-0.5,1.4c-0.3,0.4-0.9,0.6-1.5,0.7c0.3,0.2,0.6,0.4,0.8,0.6c0.2,0.2,0.5,0.7,0.9,1.3l0.9,1.5H241l-1-1.6
		c-0.4-0.6-0.7-1-0.8-1.1c-0.1-0.2-0.3-0.3-0.5-0.3c-0.2-0.1-0.4-0.1-0.8-0.1h-0.3v3.2C237.6,51.7,236,51.7,236,51.7z M237.6,47.2
		h1.2c0.8,0,1.2,0,1.4-0.1s0.3-0.2,0.4-0.3c0.1-0.2,0.2-0.3,0.2-0.6s-0.1-0.5-0.2-0.6s-0.3-0.3-0.6-0.3c-0.1,0-0.5,0-1.1,0h-1.2
		L237.6,47.2L237.6,47.2z"/>
</g>
</svg>
